<?xml version="1.0" encoding="UTF-8" standalone="no"?>
<!DOCTYPE svg PUBLIC "-//W3C//DTD SVG 1.1//EN" "http://www.w3.org/Graphics/SVG/1.1/DTD/svg11.dtd">
<!-- 由 Microsoft Visio, SVG Export 生成 绘图4.svg Page-1 -->
<svg xmlns="http://www.w3.org/2000/svg" xmlns:xlink="http://www.w3.org/1999/xlink" xmlns:ev="http://www.w3.org/2001/xml-events"
		xmlns:v="http://schemas.microsoft.com/visio/2003/SVGExtensions/" width="11.6929in" height="8.26772in"
		viewBox="0 0 841.89 595.276" xml:space="preserve" color-interpolation-filters="sRGB" class="st11">
	<v:documentProperties v:langID="2052" v:metric="true" v:viewMarkup="false">
		<v:userDefs>
			<v:ud v:nameU="msvSubprocessMaster" v:prompt="" v:val="VT4(Rectangle)"/>
			<v:ud v:nameU="msvNoAutoConnect" v:val="VT0(1):26"/>
		</v:userDefs>
	</v:documentProperties>

	<style type="text/css">
	<![CDATA[
		.st1 {fill:#ffffff;stroke:#41719c;stroke-width:0.75}
		.st2 {fill:#ffffff;stroke:#70ad47;stroke-width:0.75}
		.st3 {fill:#70ad47;font-family:Calibri;font-size:0.833336em}
		.st4 {fill:#ffffff;stroke:#fec000;stroke-width:0.75}
		.st5 {fill:#fec000;font-family:Calibri;font-size:0.833336em}
		.st6 {marker-end:url(#mrkr4-32);stroke:#5b9bd5;stroke-linecap:round;stroke-linejoin:round;stroke-width:1}
		.st7 {fill:#5b9bd5;fill-opacity:1;stroke:#5b9bd5;stroke-opacity:1;stroke-width:0.28409090909091}
		.st8 {marker-end:url(#mrkr4-97);stroke:#fec000;stroke-dasharray:3,3;stroke-linecap:round;stroke-linejoin:round;stroke-width:1}
		.st9 {fill:#fec000;fill-opacity:1;stroke:#fec000;stroke-opacity:1;stroke-width:0.28409090909091}
		.st10 {marker-end:url(#mrkr4-198);stroke:#5b9bd5;stroke-linecap:round;stroke-linejoin:round;stroke-width:1}
		.st11 {fill:none;fill-rule:evenodd;font-size:12px;overflow:visible;stroke-linecap:square;stroke-miterlimit:3}
	]]>
	</style>

	<defs id="Markers">
		<g id="lend4">
			<path d="M 2 1 L 0 0 L 2 -1 L 2 1 " style="stroke:none"/>
		</g>
		<marker id="mrkr4-32" class="st7" v:arrowType="4" v:arrowSize="2" v:setback="7.04" refX="-7.04" orient="auto"
				markerUnits="strokeWidth" overflow="visible">
			<use xlink:href="#lend4" transform="scale(-3.52,-3.52) "/>
		</marker>
		<marker id="mrkr4-97" class="st9" v:arrowType="4" v:arrowSize="2" v:setback="7.04" refX="-7.04" orient="auto"
				markerUnits="strokeWidth" overflow="visible">
			<use xlink:href="#lend4" transform="scale(-3.52,-3.52) "/>
		</marker>
		<marker id="mrkr4-198" class="st7" v:arrowType="4" v:arrowSize="2" v:setback="0" refX="-0" orient="auto"
				markerUnits="strokeWidth" overflow="visible">
			<use xlink:href="#lend4" transform="scale(-3.52,-3.52) "/>
		</marker>
	</defs>
	<g v:mID="0" v:index="1" v:groupContext="foregroundPage">
		<v:userDefs>
			<v:ud v:nameU="msvThemeOrder" v:val="VT0(0):26"/>
		</v:userDefs>
		<title>页-1</title>
		<v:pageProperties v:drawingScale="0.0393701" v:pageScale="0.0393701" v:drawingUnits="24" v:shadowOffsetX="8.50394"
				v:shadowOffsetY="-8.50394"/>
		<v:layer v:name="连接线" v:index="0"/>
		<g id="shape1-1" v:mID="1" v:groupContext="shape" transform="translate(215.433,-202.331)">
			<title>矩形</title>
			<v:userDefs>
				<v:ud v:nameU="visVersion" v:val="VT0(15):26"/>
			</v:userDefs>
			<rect x="0" y="406.687" width="15.395" height="188.588" class="st1"/>
		</g>
		<g id="shape3-3" v:mID="3" v:groupContext="shape" transform="translate(375.876,-162.992)">
			<title>矩形.3</title>
			<v:userDefs>
				<v:ud v:nameU="visVersion" v:val="VT0(15):26"/>
			</v:userDefs>
			<rect x="0" y="367.349" width="15.395" height="227.927" class="st1"/>
		</g>
		<g id="shape4-5" v:mID="4" v:groupContext="shape" transform="translate(513.877,-202.331)">
			<title>矩形.4</title>
			<v:userDefs>
				<v:ud v:nameU="visVersion" v:val="VT0(15):26"/>
			</v:userDefs>
			<rect x="0" y="406.687" width="15.395" height="188.588" class="st1"/>
		</g>
		<g id="shape5-7" v:mID="5" v:groupContext="shape" transform="translate(654.996,-202.331)">
			<title>矩形.5</title>
			<v:userDefs>
				<v:ud v:nameU="visVersion" v:val="VT0(15):26"/>
			</v:userDefs>
			<rect x="0" y="406.687" width="15.395" height="188.588" class="st1"/>
		</g>
		<g id="shape6-9" v:mID="6" v:groupContext="shape" transform="translate(137.939,-240.818)">
			<title>矩形.6</title>
			<desc>IF</desc>
			<v:userDefs>
				<v:ud v:nameU="visVersion" v:val="VT0(15):26"/>
			</v:userDefs>
			<v:textBlock v:margins="rect(4,4,4,4)" v:tabSpace="42.5197"/>
			<v:textRect cx="33.0778" cy="539.469" width="66.16" height="111.614"/>
			<rect x="0" y="483.662" width="66.1556" height="111.614" class="st2"/>
			<text x="29.52" y="542.47" class="st3" v:langID="2052"><v:paragraph v:horizAlign="1"/><v:tabList/>IF</text>		</g>
		<g id="shape7-12" v:mID="7" v:groupContext="shape" transform="translate(291.969,-240.818)">
			<title>矩形.7</title>
			<desc>ID</desc>
			<v:userDefs>
				<v:ud v:nameU="visVersion" v:val="VT0(15):26"/>
			</v:userDefs>
			<v:textBlock v:margins="rect(4,4,4,4)" v:tabSpace="42.5197"/>
			<v:textRect cx="33.0778" cy="539.469" width="66.16" height="111.614"/>
			<rect x="0" y="483.662" width="66.1556" height="111.614" class="st2"/>
			<text x="28.74" y="542.47" class="st3" v:langID="2052"><v:paragraph v:horizAlign="1"/><v:tabList/>ID</text>		</g>
		<g id="shape8-15" v:mID="8" v:groupContext="shape" transform="translate(425.655,-240.818)">
			<title>V 形</title>
			<desc>ALU</desc>
			<v:userDefs>
				<v:ud v:nameU="visVersion" v:prompt="" v:val="VT0(15):26"/>
			</v:userDefs>
			<v:textBlock v:margins="rect(4,4,4,4)" v:tabSpace="42.5197"/>
			<v:textRect cx="33.0778" cy="539.469" width="66.16" height="111.614"/>
			<path d="M0 595.28 L33.08 595.28 L66.16 539.47 L33.08 483.66 L0 483.66 L33.08 539.47 L0 595.28 Z" class="st2"/>
			<text x="24.87" y="542.47" class="st3" v:langID="2052"><v:paragraph v:horizAlign="1"/><v:tabList/>ALU</text>		</g>
		<g id="shape9-18" v:mID="9" v:groupContext="shape" transform="translate(572.598,-240.818)">
			<title>矩形.9</title>
			<desc>MEM</desc>
			<v:userDefs>
				<v:ud v:nameU="visVersion" v:val="VT0(15):26"/>
			</v:userDefs>
			<v:textBlock v:margins="rect(4,4,4,4)" v:tabSpace="42.5197"/>
			<v:textRect cx="33.0778" cy="539.469" width="66.16" height="111.614"/>
			<rect x="0" y="483.662" width="66.1556" height="111.614" class="st2"/>
			<text x="22.09" y="542.47" class="st3" v:langID="2052"><v:paragraph v:horizAlign="1"/><v:tabList/>MEM</text>		</g>
		<g id="shape26-21" v:mID="26" v:groupContext="shape" transform="translate(83.5978,-271.816)">
			<title>矩形.26</title>
			<desc>PC</desc>
			<v:userDefs>
				<v:ud v:nameU="visVersion" v:val="VT0(15):26"/>
			</v:userDefs>
			<v:textBlock v:margins="rect(4,4,4,4)" v:tabSpace="42.5197"/>
			<v:textRect cx="21.9806" cy="570.467" width="43.97" height="49.6167"/>
			<rect x="0" y="545.659" width="43.9612" height="49.6167" class="st2"/>
			<text x="16.73" y="573.47" class="st3" v:langID="2052"><v:paragraph v:horizAlign="1"/><v:tabList/>PC</text>		</g>
		<g id="shape27-24" v:mID="27" v:groupContext="shape" transform="translate(475.47,-114.189)">
			<title>矩形.27</title>
			<desc>Forward</desc>
			<v:userDefs>
				<v:ud v:nameU="visVersion" v:val="VT0(15):26"/>
			</v:userDefs>
			<v:textBlock v:margins="rect(4,4,4,4)" v:tabSpace="42.5197"/>
			<v:textRect cx="47.1471" cy="567.331" width="94.3" height="55.8901"/>
			<rect x="0" y="539.385" width="94.2942" height="55.8901" class="st4"/>
			<text x="30.13" y="570.33" class="st5" v:langID="2052"><v:paragraph v:horizAlign="1"/><v:tabList/>Forward</text>		</g>
		<g id="shape28-27" v:mID="28" v:groupContext="shape" v:layerMember="0" transform="translate(125.662,-289.538)">
			<title>动态连接线</title>
			<path d="M1.9 588.19 L5.24 588.19" class="st6"/>
		</g>
		<g id="shape33-33" v:mID="33" v:groupContext="shape" v:layerMember="0" transform="translate(202.677,-289.538)">
			<title>动态连接线.33</title>
			<path d="M1.42 588.19 L5.72 588.19" class="st6"/>
		</g>
		<g id="shape37-38" v:mID="37" v:groupContext="shape" v:layerMember="0" transform="translate(231.024,-401.102)">
			<title>动态连接线.37</title>
		</g>
		<g id="shape42-39" v:mID="42" v:groupContext="shape" transform="translate(263.83,-418.913)">
			<title>矩形.42</title>
			<desc>Control</desc>
			<v:userDefs>
				<v:ud v:nameU="visVersion" v:val="VT0(15):26"/>
			</v:userDefs>
			<v:textBlock v:margins="rect(4,4,4,4)" v:tabSpace="42.5197"/>
			<v:textRect cx="47.1471" cy="567.331" width="94.3" height="55.8901"/>
			<rect x="0" y="539.385" width="94.2942" height="55.8901" class="st4"/>
			<text x="32.02" y="570.33" class="st5" v:langID="2052"><v:paragraph v:horizAlign="1"/><v:tabList/>Control</text>		</g>
		<g id="shape44-42" v:mID="44" v:groupContext="shape" v:layerMember="0" transform="translate(230.828,-296.625)">
			<title>动态连接线.44</title>
			<path d="M0 595.28 L8.27 595.28 A2.3622 2.3622 0 0 1 12.99 595.28 L20.41 595.28 L20.41 445.04 L25.96 445.04"
					class="st6"/>
		</g>
		<g id="shape45-47" v:mID="45" v:groupContext="shape" v:layerMember="0" transform="translate(251.575,-289.984)">
			<title>动态连接线.45</title>
			<path d="M0 588.76 L8.49 588.52 A2.3622 2.3622 0 1 1 13.21 588.38 L33.36 587.82" class="st6"/>
		</g>
		<g id="shape51-52" v:mID="51" v:groupContext="shape" v:layerMember="0" transform="translate(274.016,-296.625)">
			<title>动态连接线.51</title>
			<path d="M0 595.28 L0 708.28 L24.43 708.28 A2.3622 2.3622 0 0 1 29.16 708.28 L48.67 708.28 A2.3622 2.3622 0 0 1 53.39
						 708.28 L70.87 708.28 A2.3622 2.3622 0 0 1 75.59 708.28 L94.82 708.28" class="st6"/>
		</g>
		<g id="shape53-57" v:mID="53" v:groupContext="shape" v:layerMember="0" transform="translate(262.429,-339.024)">
			<title>动态连接线.53</title>
			<path d="M0 595.28 L0 738.68 L9.23 738.68 A2.3622 2.3622 0 1 1 13.95 738.68 L36.02 738.68 A2.3622 2.3622 0 1 1 40.75
						 738.68 L60.26 738.68 A2.3622 2.3622 0 1 1 64.98 738.68 L82.45 738.68 A2.3622 2.3622 0 1 1 87.18 738.68 L106.41
						 738.68" class="st6"/>
		</g>
		<g id="shape54-62" v:mID="54" v:groupContext="shape" v:layerMember="0" transform="translate(251.575,-296.625)">
			<title>动态连接线.54</title>
			<path d="M0 595.28 L0 683.73 L8.49 683.73 A2.3622 2.3622 0 0 1 13.22 683.73 L20.08 683.73 A2.3622 2.3622 0 0 1 24.8 683.73
						 L46.88 683.73 A2.3622 2.3622 0 0 1 51.6 683.73 L71.11 683.73 A2.3622 2.3622 0 0 1 75.83 683.73 L93.31 683.73
						 A2.3622 2.3622 0 0 1 98.03 683.73 L116.98 683.73" class="st6"/>
		</g>
		<g id="shape55-67" v:mID="55" v:groupContext="shape" v:layerMember="0" transform="translate(358.124,-340.016)">
			<title>动态连接线.55</title>
			<path d="M0 602.22 L10.71 602.39" class="st6"/>
		</g>
		<g id="shape56-72" v:mID="56" v:groupContext="shape" v:layerMember="0" transform="translate(358.124,-289.572)">
			<title>动态连接线.56</title>
			<path d="M0 588.22 L10.71 588.18" class="st6"/>
		</g>
		<g id="shape57-77" v:mID="57" v:groupContext="shape" v:layerMember="0" transform="translate(687.402,-134.846)">
			<title>动态连接线.57</title>
			<path d="M0 588.39 L0 587.99 L-110.6 587.99" class="st6"/>
		</g>
		<g id="shape66-82" v:mID="66" v:groupContext="shape" v:layerMember="0" transform="translate(670.391,-296.625)">
			<title>动态连接线.66</title>
			<path d="M0 595.28 L31.77 595.28 L31.77 789.94 L19.37 789.94 A2.3622 2.3622 -180 0 0 14.65 789.94 L-345.34 789.94 L-345.34
						 658.12" class="st6"/>
		</g>
		<g id="shape72-87" v:mID="72" v:groupContext="shape" v:layerMember="0" transform="translate(251.575,-332.22)">
			<title>动态连接线.72</title>
			<path d="M0 588.19 L33.35 588.19" class="st6"/>
		</g>
		<g id="shape75-92" v:mID="75" v:groupContext="shape" v:layerMember="0" transform="translate(391.277,-379.842)">
			<title>动态连接线.75</title>
			<path d="M0 602.17 L115.57 602.54" class="st8"/>
		</g>
		<g id="shape76-98" v:mID="76" v:groupContext="shape" v:layerMember="0" transform="translate(391.277,-392.897)">
			<title>动态连接线.76</title>
			<path d="M0 602.17 L25.38 602.25 A2.3622 2.3622 0 0 1 30.11 602.26 L115.57 602.54" class="st8"/>
		</g>
		<g id="shape77-103" v:mID="77" v:groupContext="shape" v:layerMember="0" transform="translate(529.272,-378.668)">
			<title>动态连接线.77</title>
			<path d="M0 588.23 L118.68 588.15" class="st8"/>
		</g>
		<g id="shape78-108" v:mID="78" v:groupContext="shape" v:layerMember="0" transform="translate(310.977,-418.913)">
			<title>动态连接线.78</title>
			<path d="M0 595.28 L-19.01 595.28 L-19.01 641.64 L57.86 641.64" class="st8"/>
		</g>
		<g id="shape80-113" v:mID="80" v:groupContext="shape" v:layerMember="0" transform="translate(310.977,-418.913)">
			<title>动态连接线.80</title>
			<path d="M0 595.28 L0 630.53 L57.86 630.53" class="st8"/>
		</g>
		<g id="shape81-118" v:mID="81" v:groupContext="shape" v:layerMember="0" transform="translate(310.977,-474.803)">
			<title>动态连接线.81</title>
			<path d="M0 595.28 L0 577.56 L-238.01 577.56 L-238.01 773.45 L-234.42 773.45" class="st8"/>
		</g>
		<g id="shape84-123" v:mID="84" v:groupContext="shape" v:layerMember="0" transform="translate(392.598,-318.898)">
			<title>动态连接线.84</title>
			<path d="M0 588.19 L28.82 588.19 A2.3622 2.3622 0 0 1 33.54 588.19 L41.69 588.19" class="st6"/>
		</g>
		<g id="shape118-128" v:mID="118" v:groupContext="shape" v:layerMember="0" transform="translate(391.271,-262.205)">
			<title>动态连接线.118</title>
			<path d="M0 588.19 L23.06 588.19 A2.3622 2.3622 0 1 1 27.78 588.19 L30.15 588.19 A2.3622 2.3622 0 1 1 34.87 588.19 L44.22
						 588.19" class="st6"/>
		</g>
		<g id="shape119-133" v:mID="119" v:groupContext="shape" v:layerMember="0" transform="translate(310.977,-418.913)">
			<title>动态连接线.119</title>
			<path d="M0 595.28 L-37.79 595.28 L-37.79 651.76 L57.86 651.76" class="st8"/>
		</g>
		<g id="shape121-138" v:mID="121" v:groupContext="shape" v:layerMember="0" transform="translate(419.02,-372.863)">
			<title>动态连接线.121</title>
			<path d="M0 595.28 L0 521.28 L-53.86 521.28" class="st8"/>
		</g>
		<g id="shape129-143" v:mID="129" v:groupContext="shape" v:layerMember="0" transform="translate(527.801,-296.625)">
			<title>动态连接线.129</title>
			<path d="M1.47 595.28 L1.47 677.96 L12.7 677.96 L12.7 714.78" class="st6"/>
		</g>
		<g id="shape130-148" v:mID="130" v:groupContext="shape" v:layerMember="0" transform="translate(543.118,-385.714)">
			<title>动态连接线.130</title>
			<path d="M6.8 595.28 L7.35 803.87" class="st8"/>
		</g>
		<g id="shape131-153" v:mID="131" v:groupContext="shape" v:layerMember="0" transform="translate(522.617,-170.079)">
			<title>动态连接线.131</title>
			<path d="M0 595.28 L-22.66 595.28 L-22.66 402.29 L-80.42 402.29 L-80.42 405.88" class="st8"/>
		</g>
		<g id="shape132-158" v:mID="132" v:groupContext="shape" v:layerMember="0" transform="translate(522.617,-170.079)">
			<title>动态连接线.132</title>
			<path d="M0 595.28 L-40.73 595.28 L-40.73 537.21 L-80.42 537.21 L-80.42 531.58" class="st8"/>
		</g>
		<g id="shape134-163" v:mID="134" v:groupContext="shape" v:layerMember="0" transform="translate(491.811,-289.538)">
			<title>动态连接线.134</title>
			<path d="M0 588.19 L5.79 588.19 A2.3622 2.3622 0 0 1 10.51 588.19 L15.03 588.19" class="st6"/>
		</g>
		<g id="shape137-168" v:mID="137" v:groupContext="shape" v:layerMember="0" transform="translate(476.22,-274.819)">
			<title>动态连接线.137</title>
			<path d="M0 602.22 L21.38 602.38 A2.3622 2.3622 0 0 1 26.1 602.42 L30.38 602.45" class="st6"/>
		</g>
		<g id="shape140-173" v:mID="140" v:groupContext="shape" v:layerMember="0" transform="translate(670.391,-385.512)">
			<title>动态连接线.140</title>
			<path d="M0 595.28 L49.2 595.28 L49.2 824.59 L34.14 824.59 A2.3622 2.3622 -180 0 0 29.41 824.59 L19.37 824.59 A2.3622
						 2.3622 -180 0 0 14.65 824.59 L-93.59 824.59" class="st8"/>
		</g>
		<g id="shape143-178" v:mID="143" v:groupContext="shape" v:layerMember="0" transform="translate(391.271,-276.956)">
			<title>动态连接线.143</title>
			<path d="M0 595.28 L0 641.21 L16.5 641.21 L16.5 730.1 L23.06 730.1 A2.3622 2.3622 0 1 1 27.78 730.1 L77.16 730.1"
					class="st6"/>
		</g>
		<g id="shape144-183" v:mID="144" v:groupContext="shape" v:layerMember="0" transform="translate(391.271,-276.956)">
			<title>动态连接线.144</title>
			<path d="M0 595.28 L0 652.55 L7.65 652.55 L7.65 743.79 L23.06 743.79 A2.3622 2.3622 0 0 1 27.78 743.79 L77.16 743.79"
					class="st6"/>
		</g>
		<g id="shape145-188" v:mID="145" v:groupContext="shape" v:layerMember="0" transform="translate(529.272,-289.538)">
			<title>动态连接线.145</title>
			<path d="M0 588.19 L18.52 588.19 A2.3622 2.3622 0 1 1 23.25 588.19 L36.29 588.19" class="st6"/>
		</g>
		<g id="shape193-193" v:mID="193" v:groupContext="shape" v:layerMember="0" transform="translate(530.079,-270.709)">
			<title>动态连接线.193</title>
			<path d="M0 588.19 L17.76 588.19 A2.3622 2.3622 0 1 1 22.49 588.19 L33.07 588.19 A2.3622 2.3622 0 1 1 37.8 588.19 L41.43
						 588.19" class="st10"/>
		</g>
		<g id="shape195-199" v:mID="195" v:groupContext="shape" v:layerMember="0" transform="translate(565.512,-219.685)">
			<title>动态连接线.195</title>
			<path d="M0 588.19 L82.44 588.19" class="st6"/>
		</g>
		<g id="shape196-204" v:mID="196" v:groupContext="shape" v:layerMember="0" transform="translate(638.754,-289.538)">
			<title>动态连接线.196</title>
			<path d="M0 588.19 L9.2 588.19" class="st6"/>
		</g>
		<g id="shape198-209" v:mID="198" v:groupContext="shape" v:layerMember="0" transform="translate(423.257,-192.756)">
			<title>动态连接线.198</title>
			<path d="M0.52 595.28 L0.52 454.58 L6.61 454.58" class="st6"/>
		</g>
		<g id="shape199-214" v:mID="199" v:groupContext="shape" v:layerMember="0" transform="translate(424.159,-255.083)">
			<title>动态连接线.199</title>
			<path d="M0 588.22 L7.13 588.19" class="st6"/>
		</g>
		<g id="shape204-219" v:mID="204" v:groupContext="shape" v:layerMember="0" transform="translate(565.512,-296.22)">
			<title>动态连接线.204</title>
			<path d="M0 595.28 L0 698.74 L-12.72 698.74 A2.3622 2.3622 -180 0 0 -17.45 698.74 L-22.65 698.74 A2.3622 2.3622 -180
						 0 0 -27.37 698.74 L-63.19 698.74 A2.3622 2.3622 -180 0 0 -67.91 698.74 L-81.26 698.74 A2.3622 2.3622 -180
						 1 0 -85.98 698.74 L-134.69 698.74" class="st6"/>
		</g>
		<g id="shape206-224" v:mID="206" v:groupContext="shape" v:layerMember="0" transform="translate(416.693,-101.956)">
			<title>动态连接线.206</title>
			<path d="M0 595.28 L0 378.33 L4.72 378.33 A2.3622 2.3622 0 0 1 9.45 378.33 L21.31 378.33" class="st6"/>
		</g>
		<g id="shape207-229" v:mID="207" v:groupContext="shape" v:layerMember="0" transform="translate(416.693,-269.291)">
			<title>动态连接线.207</title>
			<path d="M0 588.19 L4.72 588.19 A2.3622 2.3622 0 1 1 9.45 588.19 L23.84 588.19" class="st6"/>
		</g>
		<g id="shape209-234" v:mID="209" v:groupContext="shape" v:layerMember="0" transform="translate(540.503,-207.004)">
			<title>动态连接线.209</title>
			<path d="M0 588.19 L7.51 588.19 A2.3622 2.3622 0 1 1 12.23 588.19 L22.65 588.19 A2.3622 2.3622 0 1 1 27.37 588.19 L107.45
						 588.19" class="st6"/>
		</g>
		<g id="shape210-239" v:mID="210" v:groupContext="shape" v:layerMember="0" transform="translate(289.134,-474.803)">
			<title>动态连接线.210</title>
			<path d="M0 595.28 L0 586.71 L-213.8 586.71 A2.3622 2.3622 -180 1 0 -218.53 586.71 L-228.6 586.71 L-228.6 848.98 L-185.92
						 848.98 A2.3622 2.3622 0 1 1 -181.19 848.98 L-80.74 848.98" class="st8"/>
		</g>
		<g id="shape213-244" v:mID="213" v:groupContext="shape" v:layerMember="0" transform="translate(670.391,-296.625)">
			<title>动态连接线.213</title>
			<path d="M0 595.28 L0 647.46 L17.01 647.46 L17.01 804.03 L-369.58 804.03 L-369.58 658.12" class="st6"/>
		</g>
		<g id="shape214-249" v:mID="214" v:groupContext="shape" v:layerMember="0" transform="translate(310.977,-418.913)">
			<title>动态连接线.214</title>
			<path d="M0 595.28 L18.55 595.28 L18.55 614.86 L105.68 614.86 A2.3622 2.3622 0 0 1 110.4 614.86 L210.6 614.86 L210.6
						 616.23" class="st8"/>
		</g>
		<g id="shape216-254" v:mID="216" v:groupContext="shape" v:layerMember="0" transform="translate(310.977,-418.913)">
			<title>动态连接线.216</title>
			<path d="M0 595.28 L39.1 595.28 L39.1 605.91 L105.68 605.91 A2.3622 2.3622 0 0 1 110.4 605.91 L351.72 605.91 L351.72
						 616.23" class="st8"/>
		</g>
		<g id="shape217-259" v:mID="217" v:groupContext="shape" v:layerMember="0" transform="translate(105.578,-321.433)">
			<title>动态连接线.217</title>
			<path d="M0 595.28 L-0 546.83 L102.81 546.83" class="st6"/>
		</g>
		<g id="shape219-264" v:mID="219" v:groupContext="shape" v:layerMember="0" transform="translate(251.575,-214.016)">
			<title>动态连接线.219</title>
			<path d="M0 588.19 L8.49 588.19 A2.3622 2.3622 0 1 1 13.22 588.19 L20.08 588.19 A2.3622 2.3622 0 1 1 24.8 588.19 L46.88
						 588.19 A2.3622 2.3622 0 1 1 51.6 588.19 L71.11 588.19 A2.3622 2.3622 0 0 1 75.83 588.19 L116.69 588.19"
					class="st6"/>
		</g>
		<g id="shape220-269" v:mID="220" v:groupContext="shape" v:layerMember="0" transform="translate(347.244,-221.102)">
			<title>动态连接线.220</title>
			<path d="M0 595.28 L0 642.05 L-19.84 642.05 A2.3622 2.3622 -180 0 0 -24.56 642.05 L-44.07 642.05 A2.3622 2.3622 -180
						 0 0 -48.79 642.05 L-184.3 642.05" class="st6"/>
		</g>
		<g id="shape224-274" v:mID="224" v:groupContext="shape" v:layerMember="0" transform="translate(230.828,-296.625)">
			<title>动态连接线.224</title>
			<path d="M0 595.28 L0 521.37 L10.63 521.37 L10.63 704.81 L-67.88 704.81" class="st6"/>
		</g>
		<g id="shape286-279" v:mID="286" v:groupContext="shape" transform="translate(161.575,991.343) rotate(180)">
			<title>V 形.286</title>
			<v:userDefs>
				<v:ud v:nameU="visVersion" v:prompt="" v:val="VT0(15):26"/>
			</v:userDefs>
			<path d="M0 595.28 L11.15 595.28 L22.31 576.46 L11.15 557.64 L0 557.64 L11.15 576.46 L0 595.28 Z" class="st2"/>
		</g>
		<g id="shape287-281" v:mID="287" v:groupContext="shape" v:layerMember="0" transform="translate(139.269,-180.392)">
			<title>动态连接线.287</title>
			<path d="M0 595.28 L-33.69 595.28 L-33.69 510.89" class="st6"/>
		</g>
	</g>
</svg>
